HIERARCHY
ROOT Hips
{
	OFFSET -0.001795 -0.223333 0.028219
	CHANNELS 6 Xposition Yposition Zposition Zrotation Yrotation Xrotation 
	JOINT LeftUpLeg
	{
		OFFSET 0.069520 -0.091406 -0.006815
		CHANNELS 3 Zrotation Yrotation Xrotation
		JOINT LeftLeg
		{
			OFFSET 0.034277 -0.375199 -0.004496
			CHANNELS 3 Zrotation Yrotation Xrotation
			JOINT LeftFoot
			{
				OFFSET -0.013596 -0.397961 -0.043693
				CHANNELS 3 Zrotation Yrotation Xrotation
				JOINT LeftToe
				{
					OFFSET 0.026358 -0.055791 0.119288
					CHANNELS 3 Zrotation Yrotation Xrotation
					End Site
					{
						OFFSET 0.000000 0.000000 0.000000
					}
				}
			}
		}
	}
	JOINT RightUpLeg
	{
		OFFSET -0.067670 -0.090522 -0.004320
		CHANNELS 3 Zrotation Yrotation Xrotation
		JOINT RightLeg
		{
			OFFSET -0.038290 -0.382569 -0.008850
			CHANNELS 3 Zrotation Yrotation Xrotation
			JOINT RightFoot
			{
				OFFSET 0.015774 -0.398415 -0.042312
				CHANNELS 3 Zrotation Yrotation Xrotation
				JOINT RightToe
				{
					OFFSET -0.025372 -0.048144 0.123348
					CHANNELS 3 Zrotation Yrotation Xrotation
					End Site
					{
						OFFSET 0.000000 0.000000 0.000000
					}
				}
			}
		}
	}
	JOINT Spine
	{
		OFFSET -0.002533 0.108963 -0.026696
		CHANNELS 3 Zrotation Yrotation Xrotation
		JOINT Spine1
		{
			OFFSET 0.005487 0.135180 0.001092
			CHANNELS 3 Zrotation Yrotation Xrotation
			JOINT Spine2
			{
				OFFSET 0.001457 0.052922 0.025425
				CHANNELS 3 Zrotation Yrotation Xrotation
				JOINT Neck
				{
					OFFSET -0.002778 0.213870 -0.042857
					CHANNELS 3 Zrotation Yrotation Xrotation
					JOINT Head
					{
						OFFSET 0.005152 0.064970 0.051349
						CHANNELS 3 Zrotation Yrotation Xrotation
						End Site
						{
							OFFSET 0.000000 0.000000 0.000000
						}
					}
				}
				JOINT LeftShoulder
				{
					OFFSET 0.078845 0.121749 -0.034090
					CHANNELS 3 Zrotation Yrotation Xrotation
					JOINT LeftArm
					{
						OFFSET 0.090977 0.030469 -0.008868
						CHANNELS 3 Zrotation Yrotation Xrotation
						JOINT LeftForeArm
						{
							OFFSET 0.259612 -0.012772 -0.027456
							CHANNELS 3 Zrotation Yrotation Xrotation
							JOINT LeftHand
							{
								OFFSET 0.249234 0.008986 -0.001171
								CHANNELS 3 Zrotation Yrotation Xrotation
								End Site
								{
									OFFSET 0.000000 0.000000 0.000000
								}
							}
						}
					}
				}
				JOINT RightShoulder
				{
					OFFSET -0.081759 0.118833 -0.038615
					CHANNELS 3 Zrotation Yrotation Xrotation
					JOINT RightArm
					{
						OFFSET -0.096012 0.032551 -0.009143
						CHANNELS 3 Zrotation Yrotation Xrotation
						JOINT RightForeArm
						{
							OFFSET -0.253742 -0.013329 -0.021401
							CHANNELS 3 Zrotation Yrotation Xrotation
							JOINT RightHand
							{
								OFFSET -0.255298 0.007772 -0.005559
								CHANNELS 3 Zrotation Yrotation Xrotation
								End Site
								{
									OFFSET 0.000000 0.000000 0.000000
								}
							}
						}
					}
				}
			}
		}
	}
}
MOTION
Frames: 13
Frame Time: 0.050000
0.000000 0.907090 0.000000 -0.435528 7.360580 8.717988 13.081739 -0.431309 -23.041561 -10.185748 1.589738 16.295248 4.778280 7.631848 -6.715016 0.000000 0.000000 0.000000 -12.811797 -0.372030 -21.933029 10.536228 -3.680149 27.946325 -7.788683 -18.752591 10.616597 0.000000 0.000000 0.000000 -2.827635 -1.538126 36.818236 8.080990 -0.187513 -34.868388 1.251814 1.640509 27.701337 -5.020954 5.239031 -31.380833 0.000000 0.000000 0.000000 -37.595088 -4.652129 -2.098713 -36.627842 -17.347591 -0.751587 -32.128389 -61.027519 22.146247 0.000000 0.000000 0.000000 21.133074 8.327849 5.339165 39.813999 5.954127 -4.545087 15.818051 61.848419 13.645886 0.000000 0.000000 0.000000 
-0.010128 0.900053 -0.002064 -0.211318 6.982835 10.643605 13.564485 -0.380492 -25.891584 -10.034926 1.629064 17.484973 5.185353 8.559669 -7.209913 0.000000 0.000000 0.000000 -13.102114 -0.536043 -25.681740 12.067025 -4.386077 29.204294 -9.721809 -22.271782 11.744061 0.000000 0.000000 0.000000 -1.418786 -2.143527 38.457216 7.721097 -0.017555 -36.130797 1.698132 2.673406 27.642665 -7.114269 6.271769 -32.943051 0.000000 0.000000 0.000000 -38.137271 -3.138473 -3.817405 -37.711138 -18.151520 -0.339910 -37.901396 -60.730292 25.641091 0.000000 0.000000 0.000000 20.676842 8.135595 5.457211 38.304190 4.926926 -4.716736 20.112088 67.168531 18.304483 0.000000 0.000000 0.000000 
-0.019462 0.892506 -0.005338 0.812345 7.616191 11.180232 13.500183 -0.493612 -28.258682 -10.636582 1.825749 19.968798 5.250959 8.508621 -7.763075 0.000000 0.000000 0.000000 -14.262743 -0.972000 -27.203022 14.351860 -5.652299 30.668521 -12.195719 -26.940759 10.092148 0.000000 0.000000 0.000000 0.775503 -3.282505 40.171707 6.054201 0.197850 -35.815330 0.879065 3.374083 26.706785 -5.499048 5.670064 -31.618484 0.000000 0.000000 0.000000 -41.027212 -5.243490 -3.127425 -33.834846 -18.619209 -0.055700 -37.750046 -60.038370 25.056700 0.000000 0.000000 0.000000 21.507131 9.085901 6.334323 36.098954 5.824519 -4.263997 16.267226 68.624485 16.066006 0.000000 0.000000 0.000000 
-0.027777 0.885743 -0.009562 1.125045 6.919044 11.785139 14.678373 -0.203578 -31.153157 -12.077442 2.458848 23.334301 5.565766 9.512314 -7.703599 0.000000 0.000000 0.000000 -15.340624 -1.352266 -30.176538 16.169326 -6.720287 33.078400 -12.816289 -27.847273 11.345629 0.000000 0.000000 0.000000 1.128543 -3.787924 44.077032 5.576147 0.362074 -37.336116 1.571166 3.763397 26.461201 -7.029164 6.354466 -31.249637 0.000000 0.000000 0.000000 -41.882836 -4.888690 -3.444403 -32.888376 -19.232464 0.063369 -39.966012 -61.106497 27.084111 0.000000 0.000000 0.000000 20.343607 10.868987 7.165956 33.937963 7.044021 -3.703665 12.801963 73.041768 14.729152 0.000000 0.000000 0.000000 
-0.034754 0.879367 -0.013810 2.020073 5.941641 12.649792 15.007904 -0.004047 -34.611303 -13.279392 3.134580 26.297409 6.060656 11.499188 -5.790484 0.000000 0.000000 0.000000 -16.251760 -1.723547 -33.385861 17.285056 -7.449397 35.322242 -14.812553 -30.957121 12.943021 0.000000 0.000000 0.000000 2.062973 -4.412146 47.024972 4.707821 0.486781 -37.882258 1.498028 5.118605 26.141491 -6.801606 6.291051 -32.180303 0.000000 0.000000 0.000000 -40.909620 -6.711820 -2.230062 -32.615029 -18.854905 0.087017 -42.358891 -64.212914 30.271117 0.000000 0.000000 0.000000 20.398782 11.883043 7.978832 31.917929 9.198732 -3.063851 0.565783 76.140396 6.153567 0.000000 0.000000 0.000000 
-0.039427 0.874641 -0.017025 2.260915 4.771564 13.853299 15.739833 0.391951 -37.439625 -14.095347 3.610749 26.799635 6.797669 14.091230 -2.334706 0.000000 0.000000 0.000000 -16.925776 -1.929463 -36.121077 18.088294 -7.878544 36.816198 -14.248745 -30.298985 12.487244 0.000000 0.000000 0.000000 2.699978 -4.761367 49.137206 3.739396 0.573646 -37.641671 2.002069 5.689917 24.748727 -7.675410 6.522229 -33.375688 0.000000 0.000000 0.000000 -40.237294 -7.480094 -1.520673 -32.438599 -18.239032 0.032688 -43.925214 -65.816396 32.281404 0.000000 0.000000 0.000000 19.817824 13.030793 8.524703 31.216542 11.286343 -2.439778 -13.842457 79.212035 -5.187587 0.000000 0.000000 0.000000 
-0.041422 0.869944 -0.017881 2.392320 2.707176 14.144021 16.658483 1.092872 -39.069607 -14.012358 3.745518 25.826045 7.131625 15.778264 4.726807 0.000000 0.000000 0.000000 -17.196650 -1.775840 -38.038868 18.837573 -8.086627 38.258362 -14.704174 -31.355050 12.209251 0.000000 0.000000 0.000000 2.966262 -4.660552 51.382564 3.160403 0.651324 -38.161384 2.137684 6.009535 24.549278 -7.599498 6.366920 -34.004331 0.000000 0.000000 0.000000 -39.693908 -8.179613 -0.525741 -31.939522 -17.834741 -0.159511 -46.949360 -69.307487 36.742265 0.000000 0.000000 0.000000 19.856360 14.241885 9.055121 29.756051 13.809772 -1.828479 -29.647046 80.530723 -18.845803 0.000000 0.000000 0.000000 
-0.039640 0.865698 -0.015977 2.110287 0.607847 14.004200 17.627667 1.887086 -39.912891 -13.798600 3.832594 25.079837 7.798643 17.387461 12.436281 0.000000 0.000000 0.000000 -17.158184 -1.409224 -39.122750 19.232493 -8.189293 40.245256 -13.727197 -30.468362 9.778815 0.000000 0.000000 0.000000 2.748512 -4.099458 52.506937 3.350171 0.612802 -37.828142 2.277992 5.862460 24.083391 -7.501502 6.115645 -35.322732 0.000000 0.000000 0.000000 -38.514428 -8.321460 0.278492 -31.848366 -17.811988 -0.299451 -51.250705 -72.809688 42.633950 0.000000 0.000000 0.000000 19.312606 15.601721 9.426408 29.393939 15.972465 -1.279386 -39.865095 81.794569 -28.421679 0.000000 0.000000 0.000000 
-0.033838 0.862369 -0.010796 1.163058 -2.130166 13.856478 18.491384 2.775201 -39.706927 -13.451451 3.961508 24.728203 9.908405 20.259101 17.850986 0.000000 0.000000 0.000000 -16.864682 -0.775231 -39.723344 19.608968 -7.884314 40.956404 -12.717184 -29.109431 8.896678 0.000000 0.000000 0.000000 2.939207 -3.486627 52.906069 3.478547 0.621164 -38.383021 2.851648 5.971697 24.299571 -6.606372 5.598245 -35.741073 0.000000 0.000000 0.000000 -37.516452 -8.192489 0.834187 -31.601108 -18.306612 -0.374301 -59.012442 -73.566948 49.842239 0.000000 0.000000 0.000000 19.076947 16.124603 9.384614 28.977597 17.721467 -0.891536 -32.767016 83.576342 -23.211327 0.000000 0.000000 0.000000 
-0.024060 0.859960 -0.002607 0.543376 -4.604597 13.434021 18.612002 3.369983 -39.496187 -13.316430 4.397742 26.648789 11.631390 22.191618 19.437083 0.000000 0.000000 0.000000 -16.602324 -0.204535 -39.877717 19.253943 -7.330801 42.236822 -11.958848 -28.059852 8.071294 0.000000 0.000000 0.000000 2.676443 -2.668486 53.153188 4.589129 0.486593 -37.936965 2.928611 5.765438 24.166603 -6.363731 5.314345 -36.757142 0.000000 0.000000 0.000000 -36.999341 -8.429956 1.689918 -31.032111 -18.323165 -0.534937 -66.634051 -75.179302 58.022639 0.000000 0.000000 0.000000 17.610284 16.388714 8.918826 30.376093 19.485864 -0.343075 -19.254335 84.794430 -11.563770 0.000000 0.000000 0.000000 
-0.011187 0.859508 0.007808 -0.481933 -6.956321 13.170829 18.988993 3.983716 -38.869611 -13.503451 5.028153 28.748475 12.793520 23.501597 18.386161 0.000000 0.000000 0.000000 -16.490768 0.297419 -39.447575 18.171878 -6.305208 42.694987 -9.259668 -23.144361 7.596697 0.000000 0.000000 0.000000 2.360274 -1.854222 52.970687 5.426036 0.457254 -38.622021 3.278535 4.500251 25.089579 -6.056509 4.909585 -37.215641 0.000000 0.000000 0.000000 -36.376631 -8.156147 2.724241 -30.254523 -19.599051 -0.668462 -72.950920 -75.348859 64.338822 0.000000 0.000000 0.000000 18.734736 16.635686 8.631270 29.257761 19.747558 -0.335313 5.905238 86.747361 10.915147 0.000000 0.000000 0.000000 
0.003877 0.861369 0.019082 -1.290427 -9.736229 13.005084 19.173043 4.577508 -38.014603 -14.026919 5.878554 30.437664 14.046794 24.820452 18.402040 0.000000 0.000000 0.000000 -16.217032 0.873756 -38.167382 16.739097 -4.871597 41.696652 -7.252644 -19.287947 6.007330 0.000000 0.000000 0.000000 1.453205 -0.639377 51.822947 6.919753 0.214424 -37.470803 3.130031 3.665405 24.700489 -6.667034 4.914334 -37.161306 0.000000 0.000000 0.000000 -36.552987 -8.400493 3.932122 -28.809035 -20.054523 -0.847252 -73.695081 -75.546285 65.460857 0.000000 0.000000 0.000000 20.017698 16.691787 8.215533 28.889171 19.136512 -0.344866 41.255548 85.578657 42.878797 0.000000 0.000000 0.000000 
0.019691 0.864775 0.029315 -2.066924 -12.110185 13.182840 18.729852 4.911491 -37.671607 -13.722415 6.348942 31.923827 15.122221 25.866339 18.992102 0.000000 0.000000 0.000000 -16.151527 1.253781 -36.244814 15.632166 -3.681196 39.095933 -5.796121 -16.033177 3.933142 0.000000 0.000000 0.000000 0.646928 0.352353 50.775335 8.187870 0.035726 -36.845331 2.794627 2.407795 24.805962 -6.657169 4.590099 -37.784062 0.000000 0.000000 0.000000 -36.318984 -8.321716 5.065474 -27.248631 -20.764739 -1.054780 -73.376947 -76.271735 66.166119 0.000000 0.000000 0.000000 20.291630 16.656708 7.516310 28.836629 18.410839 -0.340709 52.863688 83.719767 51.511272 0.000000 0.000000 0.000000 
